<svg version="1.1" xmlns="http://www.w3.org/2000/svg" viewBox="0 0 24 24" height="24" width="24">
    <path d="M 23.703125 13 C 23.515625 12.808594 23.289062 12.714844 23.03125 12.714844 L 19.671875 12.714844 L 19.671875 8.308594 L 22.265625 5.710938 C 22.457031 5.523438 22.550781 5.296875 22.550781 5.039062 C 22.550781 4.777344 22.457031 4.554688 22.265625 4.363281 C 22.074219 4.171875 21.851562 4.078125 21.589844 4.078125 C 21.332031 4.078125 21.105469 4.171875 20.917969 4.363281 L 18.324219 6.957031 L 5.667969 6.957031 L 3.074219 4.363281 C 2.882812 4.171875 2.660156 4.078125 2.398438 4.078125 C 2.140625 4.078125 1.914062 4.171875 1.722656 4.363281 C 1.535156 4.554688 1.4375 4.777344 1.4375 5.039062 C 1.4375 5.296875 1.535156 5.523438 1.722656 5.710938 L 4.316406 8.308594 L 4.316406 12.714844 L 0.960938 12.714844 C 0.699219 12.714844 0.476562 12.808594 0.285156 13 C 0.09375 13.191406 0 13.414062 0 13.675781 C 0 13.933594 0.09375 14.160156 0.285156 14.347656 C 0.476562 14.539062 0.699219 14.632812 0.960938 14.632812 L 4.316406 14.632812 C 4.316406 16.234375 4.609375 17.601562 5.1875 18.742188 L 2.160156 22.144531 C 1.988281 22.347656 1.910156 22.578125 1.925781 22.84375 C 1.941406 23.109375 2.042969 23.332031 2.234375 23.511719 C 2.425781 23.671875 2.640625 23.75 2.878906 23.75 C 3.160156 23.75 3.398438 23.644531 3.597656 23.4375 L 6.34375 20.332031 L 6.566406 20.542969 C 6.707031 20.671875 6.925781 20.835938 7.21875 21.027344 C 7.515625 21.222656 7.84375 21.417969 8.210938 21.613281 C 8.574219 21.808594 9.007812 21.972656 9.511719 22.109375 C 10.019531 22.242188 10.527344 22.3125 11.035156 22.3125 L 11.035156 8.878906 L 12.953125 8.878906 L 12.953125 22.3125 C 13.433594 22.3125 13.917969 22.246094 14.410156 22.117188 C 14.898438 21.988281 15.308594 21.839844 15.640625 21.683594 C 15.96875 21.523438 16.292969 21.339844 16.613281 21.132812 C 16.933594 20.929688 17.144531 20.789062 17.242188 20.707031 C 17.34375 20.625 17.417969 20.5625 17.46875 20.511719 L 20.4375 23.464844 C 20.617188 23.65625 20.839844 23.75 21.113281 23.75 C 21.382812 23.75 21.605469 23.65625 21.785156 23.464844 C 21.976562 23.277344 22.070312 23.050781 22.070312 22.792969 C 22.070312 22.53125 21.976562 22.304688 21.785156 22.117188 L 18.667969 18.984375 C 19.335938 17.792969 19.671875 16.34375 19.671875 14.632812 L 23.03125 14.632812 C 23.289062 14.632812 23.515625 14.539062 23.707031 14.347656 C 23.894531 14.160156 23.992188 13.933594 23.992188 13.675781 C 23.992188 13.414062 23.894531 13.191406 23.703125 13 Z M 23.703125 13 "/>
    <path d="M 15.390625 1.640625 C 14.457031 0.707031 13.324219 0.238281 11.996094 0.238281 C 10.664062 0.238281 9.535156 0.707031 8.597656 1.640625 C 7.664062 2.578125 7.199219 3.707031 7.199219 5.039062 L 16.792969 5.039062 C 16.792969 3.710938 16.324219 2.578125 15.390625 1.640625 Z M 15.390625 1.640625 "/>
</svg>