<svg version="1.1" xmlns="http://www.w3.org/2000/svg" viewBox="0 0 24 24" height="24" width="24">
    <path d="M 9.644531 18.515625 L 9.878906 18.726562 L 9.878906 20.125 L 11.296875 20.125 L 11.296875 18.707031 L 12.703125 18.707031 L 12.703125 20.125 L 14.121094 20.125 L 14.121094 18.726562 L 14.355469 18.515625 C 15.105469 17.847656 15.53125 16.886719 15.53125 15.882812 C 15.53125 13.933594 13.949219 12.351562 12 12.351562 C 10.050781 12.351562 8.46875 13.933594 8.46875 15.882812 C 8.46875 16.886719 8.894531 17.847656 9.644531 18.515625 Z M 12.710938 15.179688 L 14.117188 15.179688 L 14.117188 16.585938 L 12.710938 16.585938 Z M 9.882812 15.179688 L 11.292969 15.179688 L 11.292969 16.585938 L 9.882812 16.585938 Z M 9.882812 15.179688 "/>
    <path d="M 11.882812 4.238281 L 10.378906 0 L 0 0 L 0 7.0625 L 24 7.0625 L 24 4.234375 Z M 11.882812 4.238281 "/>
    <path d="M 0 8.46875 L 0 24 L 24 24 L 24 8.46875 C 23.078125 8.46875 0.921875 8.46875 0 8.46875 Z M 6.152344 10.945312 L 8.78125 12.140625 C 10.632812 10.542969 13.367188 10.542969 15.21875 12.140625 L 17.847656 10.945312 L 21.179688 10.945312 L 21.179688 12.351562 L 18.152344 12.351562 L 16.175781 13.25 C 16.539062 13.824219 16.789062 14.476562 16.890625 15.179688 L 18.769531 15.179688 L 19.976562 13.972656 L 20.96875 14.96875 L 19.351562 16.585938 L 16.890625 16.585938 C 16.816406 17.078125 16.671875 17.558594 16.460938 18.003906 L 19.398438 18.003906 L 21.023438 20.035156 L 19.921875 20.910156 L 18.722656 19.410156 L 15.527344 19.410156 L 15.527344 21.53125 L 8.472656 21.53125 L 8.472656 19.410156 L 5.277344 19.410156 L 4.078125 20.910156 L 2.976562 20.035156 L 4.601562 18.003906 L 7.539062 18.003906 C 7.328125 17.558594 7.183594 17.078125 7.109375 16.585938 L 4.648438 16.585938 L 3.03125 14.96875 L 4.023438 13.972656 L 5.230469 15.179688 L 7.109375 15.179688 C 7.210938 14.476562 7.460938 13.824219 7.824219 13.25 L 5.847656 12.351562 L 2.820312 12.351562 L 2.820312 10.945312 Z M 6.152344 10.945312 "/>
</svg>