<svg version="1.1" xmlns="http://www.w3.org/2000/svg" viewBox="0 0 24 24" height="24" width="24">
    <path d="M 24.007812 14.597656 L 24.007812 23.472656 L 18.859375 23.472656 L 18.859375 15.191406 C 18.859375 13.113281 18.117188 11.691406 16.253906 11.691406 C 14.832031 11.691406 13.988281 12.648438 13.613281 13.574219 C 13.480469 13.90625 13.445312 14.367188 13.445312 14.828125 L 13.445312 23.472656 L 8.296875 23.472656 C 8.296875 23.472656 8.367188 9.449219 8.296875 7.996094 L 13.441406 7.996094 L 13.441406 10.1875 C 13.433594 10.207031 13.417969 10.222656 13.410156 10.238281 L 13.441406 10.238281 L 13.441406 10.1875 C 14.128906 9.136719 15.347656 7.632812 18.082031 7.632812 C 21.46875 7.632812 24.007812 9.84375 24.007812 14.597656 Z M 2.914062 0.535156 C 1.152344 0.535156 0 1.6875 0 3.207031 C 0 4.691406 1.117188 5.882812 2.84375 5.882812 L 2.878906 5.882812 C 4.671875 5.882812 5.789062 4.691406 5.789062 3.207031 C 5.757812 1.6875 4.671875 0.535156 2.914062 0.535156 Z M 0.304688 23.472656 L 5.449219 23.472656 L 5.449219 7.996094 L 0.304688 7.996094 Z M 0.304688 23.472656 "/>
</svg>