<svg class="svg-icon" style="width: 24px" viewBox="0 0 960 960" version="1.1" xmlns="http://www.w3.org/2000/svg"><path d="M512 426.666667a85.333333 85.333333 0 0 1 85.333333 85.333333 85.333333 85.333333 0 0 1-20.053333 55.04L712.533333 938.666667h-90.88L512 637.013333 402.346667 938.666667H311.466667l135.253333-371.626667A85.333333 85.333333 0 0 1 426.666667 512a85.333333 85.333333 0 0 1 85.333333-85.333333m0-85.333334a170.666667 170.666667 0 0 0-170.666667 170.666667c0 21.333333 4.266667 42.666667 11.946667 62.293333l-37.546667 102.4A257.109333 257.109333 0 0 1 256 512a256 256 0 0 1 256-256 256 256 0 0 1 256 256c0 62.72-22.613333 119.893333-59.733333 164.693333l-37.546667-102.4C678.4 554.666667 682.666667 533.333333 682.666667 512a170.666667 170.666667 0 0 0-170.666667-170.666667m0-170.666666a341.333333 341.333333 0 0 0-341.333333 341.333333c0 100.693333 42.666667 192 112.64 253.44l-30.72 85.333333A426.88 426.88 0 0 1 85.333333 512 426.666667 426.666667 0 0 1 512 85.333333a426.666667 426.666667 0 0 1 426.666667 426.666667c0 137.813333-65.706667 260.693333-167.253334 338.773333l-30.72-85.333333C810.666667 704 853.333333 612.693333 853.333333 512a341.333333 341.333333 0 0 0-341.333333-341.333333z" fill="" /></svg>