<svg version="1.1" xmlns="http://www.w3.org/2000/svg" viewBox="0 0 24 24" height="24" width="24">
    <path d="M 23.140625 10.195312 L 21.9375 10.195312 L 21.9375 6.386719 C 21.910156 5.929688 21.535156 5.554688 21.078125 5.527344 L 12.859375 5.527344 L 12.859375 0.257812 L 11.140625 0.257812 L 11.140625 5.527344 L 2.921875 5.527344 C 2.464844 5.554688 2.089844 5.929688 2.0625 6.386719 L 2.0625 10.195312 L 0.859375 10.195312 C 0.371094 10.195312 0 10.566406 0 11.054688 L 0 16.726562 C 0 17.210938 0.371094 17.585938 0.859375 17.585938 L 2.0625 17.585938 L 2.0625 22.882812 C 2.089844 23.339844 2.464844 23.714844 2.921875 23.742188 L 21.078125 23.742188 C 21.535156 23.714844 21.910156 23.339844 21.9375 22.882812 L 21.9375 17.585938 L 23.140625 17.585938 C 23.628906 17.585938 24 17.210938 24 16.726562 L 24 11.054688 C 24 10.566406 23.628906 10.195312 23.140625 10.195312 Z M 5.613281 12.230469 C 5.613281 10.855469 6.730469 9.738281 8.105469 9.738281 C 9.480469 9.738281 10.597656 10.855469 10.597656 12.230469 C 10.597656 13.605469 9.480469 14.722656 8.105469 14.722656 C 6.730469 14.722656 5.613281 13.605469 5.613281 12.230469 Z M 15.78125 19.703125 L 8.21875 19.703125 L 8.21875 17.984375 L 15.78125 17.984375 Z M 18.386719 12.230469 C 18.386719 13.605469 17.269531 14.722656 15.894531 14.722656 C 14.492188 14.722656 13.375 13.605469 13.347656 12.230469 C 13.347656 10.824219 14.464844 9.707031 15.835938 9.679688 C 17.210938 9.652344 18.359375 10.796875 18.386719 12.171875 C 18.386719 12.199219 18.386719 12.199219 18.386719 12.230469 Z M 18.386719 12.230469 "/>
</svg>